<?xml version="1.0" encoding="UTF-8" standalone="no"?>
<svg
   xmlns:dc="http://purl.org/dc/elements/1.1/"
   xmlns:cc="http://creativecommons.org/ns#"
   xmlns:rdf="http://www.w3.org/1999/02/22-rdf-syntax-ns#"
   xmlns:svg="http://www.w3.org/2000/svg"
   xmlns="http://www.w3.org/2000/svg"
   version="1.1"
   id="svg2"
   xml:space="preserve"
   width="858.47601"
   height="815.65332"
   viewBox="0 0 858.476 815.65332"><metadata
     id="metadata8"><rdf:RDF><cc:Work
         rdf:about=""><dc:format>image/svg+xml</dc:format><dc:type
           rdf:resource="http://purl.org/dc/dcmitype/StillImage" /><dc:title></dc:title></cc:Work></rdf:RDF></metadata><defs
     id="defs6" /><g
     id="g10"
     transform="matrix(1.3333333,0,0,-1.3333333,0,815.65332)"><g
       id="g3787"><path
         d="m 63.7527,162.654 h -25.655 v -57.468 h 25.655 c 8.9797,0 16.484,0.94 22.5129,2.822 6.0285,1.88 10.6242,4.959 13.7894,9.236 3.163,4.274 4.746,9.878 4.746,16.804 0,8.294 -2.437,15.05 -7.3115,20.267 -5.4735,5.559 -16.7196,8.339 -33.7368,8.339 z m 9.236,-86.2009 H 38.0977 V 23.2191 C 38.0977,15.6059 36.302,9.83398 32.7102,5.90117 29.1184,1.96914 24.5848,0 19.1133,0 13.3832,0 8.76484,1.94609 5.25898,5.83711 1.75234,9.72617 0,15.4352 0,22.9621 V 167.913 c 0,8.38 1.92422,14.366 5.77227,17.959 3.84882,3.591 9.96133,5.387 18.34373,5.387 h 48.8727 c 14.4515,0 25.5691,-1.112 33.3513,-3.334 7.697,-2.14 14.345,-5.69 19.947,-10.648 5.601,-4.961 9.856,-11.032 12.764,-18.216 2.906,-7.182 4.361,-15.263 4.361,-24.243 0,-19.157 -5.9,-33.673 -17.702,-43.5508 C 113.909,81.3898 96.3352,76.4531 72.9887,76.4531"
         style="fill:#8e1b80;fill-opacity:1;fill-rule:nonzero;stroke:none;stroke-width:0.1"
         id="path14" /><path
         d="m 248.224,71.193 c 0,14.2808 -3.143,25.3992 -9.429,33.353 -6.285,7.952 -14.731,11.928 -25.333,11.928 -6.843,0 -12.872,-1.775 -18.088,-5.324 -5.216,-3.549 -9.235,-8.786 -12.057,-15.7129 -2.823,-6.9269 -4.233,-15.0082 -4.233,-24.2441 0,-9.1508 1.388,-17.1461 4.168,-23.9879 2.779,-6.8422 6.755,-12.0789 11.93,-15.7129 5.173,-3.6363 11.266,-5.4524 18.28,-5.4524 10.602,0 19.048,3.9961 25.333,11.9942 6.286,7.9949 9.429,19.05 9.429,33.159 z m 35.147,0 c 0,-10.4328 -1.625,-20.0551 -4.874,-28.861 C 275.246,33.5219 270.543,25.9539 264.386,19.627 258.23,13.2969 250.874,8.44414 242.324,5.06719 233.771,1.68984 224.15,0 213.462,0 c -10.606,0 -20.14,1.71211 -28.606,5.13086 -8.466,3.42031 -15.8,8.31714 -22,14.68714 -6.201,6.3711 -10.903,13.8972 -14.11,22.5769 -3.207,8.6789 -4.81,18.2801 -4.81,28.7981 0,10.6031 1.623,20.3101 4.874,29.118 3.249,8.808 7.909,16.334 13.982,22.577 6.071,6.242 13.425,11.051 22.064,14.431 8.636,3.377 18.171,5.068 28.606,5.068 10.602,0 20.223,-1.712 28.862,-5.132 8.636,-3.422 16.034,-8.295 22.191,-14.623 6.157,-6.33 10.839,-13.855 14.046,-22.577 3.207,-8.723 4.81,-18.3429 4.81,-28.862"
         style="fill:#8e1b80;fill-opacity:1;fill-rule:nonzero;stroke:none;stroke-width:0.1"
         id="path16" /><path
         d="m 302.367,139.307 h 3.847 v 21.038 c 0,5.644 0.149,10.069 0.449,13.277 0.299,3.206 1.133,5.964 2.502,8.272 1.367,2.394 3.335,4.34 5.9,5.837 2.566,1.496 5.43,2.245 8.595,2.245 4.445,0 8.466,-1.667 12.058,-5.003 2.393,-2.224 3.913,-4.938 4.554,-8.145 0.641,-3.206 0.962,-7.761 0.962,-13.661 v -23.86 h 12.827 c 4.959,0 8.743,-1.175 11.352,-3.527 2.608,-2.353 3.913,-5.367 3.913,-9.043 0,-4.705 -1.86,-7.998 -5.58,-9.877 -3.72,-1.884 -9.043,-2.823 -15.97,-2.823 h -6.542 V 49.6422 c 0,-5.4723 0.192,-9.6832 0.576,-12.634 0.386,-2.9512 1.412,-5.3461 3.079,-7.1844 1.667,-1.8398 4.381,-2.7578 8.146,-2.7578 2.052,0 4.83,0.3629 8.338,1.091 3.505,0.7262 6.242,1.0899 8.209,1.0899 2.823,0 5.366,-1.134 7.633,-3.3989 2.265,-2.2671 3.4,-5.0671 3.4,-8.4031 0,-5.6429 -3.079,-9.96287 -9.236,-12.95506 C 365.222,1.49805 356.37,0 344.825,0 333.877,0 325.584,1.84023 319.94,5.51484 c -5.644,3.67618 -9.345,8.76606 -11.095,15.26606 -1.755,6.498 -2.631,15.1793 -2.631,26.0402 v 67.2159 h -4.617 c -5.048,0 -8.895,1.197 -11.545,3.592 -2.652,2.393 -3.977,5.429 -3.977,9.108 0,3.676 1.39,6.69 4.169,9.043 2.778,2.352 6.819,3.527 12.123,3.527"
         style="fill:#8e1b80;fill-opacity:1;fill-rule:nonzero;stroke:none;stroke-width:0.1"
         id="path18" /><path
         d="m 478.885,71.193 c 0,14.2808 -3.143,25.3992 -9.429,33.353 -6.285,7.952 -14.732,11.928 -25.335,11.928 -6.842,0 -12.871,-1.775 -18.086,-5.324 -5.217,-3.549 -9.236,-8.786 -12.059,-15.7129 -2.821,-6.9269 -4.232,-15.0082 -4.232,-24.2441 0,-9.1508 1.389,-17.1461 4.169,-23.9879 2.777,-6.8422 6.754,-12.0789 11.93,-15.7129 5.172,-3.6363 11.265,-5.4524 18.278,-5.4524 10.603,0 19.05,3.9961 25.335,11.9942 6.286,7.9949 9.429,19.05 9.429,33.159 z m 35.147,0 c 0,-10.4328 -1.626,-20.0551 -4.875,-28.861 -3.25,-8.8101 -7.953,-16.3781 -14.11,-22.705 C 488.889,13.2969 481.534,8.44414 472.984,5.06719 464.431,1.68984 454.81,0 444.121,0 c -10.604,0 -20.139,1.71211 -28.605,5.13086 -8.466,3.42031 -15.799,8.31714 -22,14.68714 -6.201,6.3711 -10.903,13.8972 -14.11,22.5769 -3.206,8.6789 -4.809,18.2801 -4.809,28.7981 0,10.6031 1.623,20.3101 4.873,29.118 3.25,8.808 7.91,16.334 13.982,22.577 6.072,6.242 13.425,11.051 22.064,14.431 8.637,3.377 18.171,5.068 28.605,5.068 10.603,0 20.224,-1.712 28.863,-5.132 8.636,-3.422 16.034,-8.295 22.191,-14.623 6.157,-6.33 10.839,-13.855 14.047,-22.577 3.207,-8.723 4.81,-18.3429 4.81,-28.862"
         style="fill:#8e1b80;fill-opacity:1;fill-rule:nonzero;stroke:none;stroke-width:0.1"
         id="path20" /><path
         d="m 643.857,45.7961 c 0,-9.6652 -2.354,-17.9402 -7.056,-24.8231 C 632.097,14.0891 625.148,8.87109 615.956,5.32383 606.763,1.77617 595.581,0 582.412,0 c -12.57,0 -23.346,1.925 -32.325,5.77305 -8.979,3.84804 -15.607,8.65785 -19.883,14.43005 -4.277,5.7719 -6.413,11.5649 -6.413,17.3828 0,3.8469 1.366,7.1391 4.105,9.877 2.735,2.7351 6.199,4.1043 10.39,4.1043 3.675,0 6.498,-0.8981 8.465,-2.693 1.967,-1.7961 3.849,-4.3203 5.645,-7.5691 3.591,-6.2442 7.889,-10.9031 12.891,-13.9813 5.004,-3.0789 11.823,-4.6187 20.46,-4.6187 7.012,0 12.764,1.559 17.254,4.682 4.49,3.1219 6.734,6.691 6.734,10.7109 0,6.1579 -2.33,10.6469 -6.99,13.4692 -4.663,2.8207 -12.337,5.5168 -23.026,8.0808 -12.058,2.993 -21.871,6.136 -29.44,9.4282 -7.568,3.2918 -13.619,7.6328 -18.151,13.0199 -4.534,5.3871 -6.798,12.0141 -6.798,19.8829 0,7.011 2.094,13.64 6.286,19.883 4.188,6.242 10.368,11.224 18.535,14.943 8.165,3.72 18.023,5.582 29.568,5.582 9.063,0 17.209,-0.943 24.437,-2.823 7.225,-1.883 13.254,-4.405 18.087,-7.569 4.829,-3.164 8.507,-6.669 11.03,-10.518 2.522,-3.848 3.784,-7.612 3.784,-11.288 0,-4.02 -1.346,-7.312 -4.04,-9.878 -2.693,-2.5649 -6.522,-3.8481 -11.48,-3.8481 -3.592,0 -6.651,1.0262 -9.171,3.0793 -2.525,2.0528 -5.411,5.1308 -8.66,9.2348 -2.651,3.42 -5.772,6.157 -9.364,8.21 -3.591,2.053 -8.466,3.079 -14.623,3.079 -6.33,0 -11.589,-1.346 -15.778,-4.041 -4.191,-2.693 -6.285,-6.051 -6.285,-10.07 0,-3.677 1.539,-6.6921 4.617,-9.0421 3.079,-2.3539 7.225,-4.2981 12.443,-5.8367 5.215,-1.5403 12.398,-3.4223 21.55,-5.6453 10.86,-2.6508 19.732,-5.8149 26.618,-9.4918 6.883,-3.6762 12.1,-8.0161 15.649,-13.02 3.548,-5.0019 5.324,-10.7101 5.324,-17.123"
         style="fill:#8e1b80;fill-opacity:1;fill-rule:nonzero;stroke:none;stroke-width:0.1"
         id="path22" /><path
         d="m 526.423,592.677 c -54.727,8.394 -101.275,-17.931 -101.275,-17.931 -70.356,44.284 -168.389,33.635 -177.496,16.643 140.122,-3.716 226.785,-73.596 267.52,-117.318 4.937,-5.299 13.321,0.885 9.784,7.206 -0.132,0.238 -0.265,0.475 -0.399,0.712 -8.497,15.083 -7.496,33.683 2.579,47.76 7.397,10.335 13.02,21.77 17.069,31.614 5.636,13.705 -3.135,29.067 -17.782,31.314"
         style="fill:#8e1b80;fill-opacity:1;fill-rule:nonzero;stroke:none;stroke-width:0.1"
         id="path24" /><path
         d="m 563.146,328.443 c -10.106,20.035 -10.978,43.126 -4.119,64.488 5.236,16.336 -2.967,34.417 -15.289,39.531 -12.705,5.271 -22.235,1.938 -22.235,1.938 -4.52,-0.751 -7.958,-2.88 -10.541,-5.498 -6.126,-6.231 -7.086,-15.917 -2.968,-23.632 l 65.065,-121.402 c -2.408,4.224 -15.202,17.086 -33.195,8.08 -17.82,-8.9 -14.416,-29.076 -14.416,-29.076 -0.699,-0.122 -1.379,-0.244 -2.06,-0.35 -17.68,-2.548 -35.133,5.498 -45.674,19.897 -5.428,7.435 -10.367,16.86 -10.088,26.441 0.576,20.979 34.696,41.905 19.285,79.638 -15.411,37.733 -64.227,39.758 -83.355,18.535 -19.739,-21.886 -5.864,-63.755 35.185,-57.839 9.722,1.396 15.76,-10.28 8.727,-17.139 -8.063,-7.854 -19.443,-12.287 -34.749,-9.32 -45.413,8.832 -66.88,70.668 -30.91,106.009 5.132,5.044 10.559,8.675 16.092,11.188 26.284,11.92 23.737,50.177 -3.56,59.55 -38.065,13.089 -81.959,13.037 -133.987,58.292 -37.698,32.795 -79.672,47.228 -115.59,52.97 -51.9406,8.308 -97.0562,-36.494 -88.3824,-88.364 9.4829,-56.687 42.5778,-96.663 61.0724,-115.157 2.576,-2.576 6.801,0.371 5.264,3.672 -12.666,27.207 -21.642,55.296 -20.523,86.162 0.677,18.68 9.204,36.057 27.931,41.99 18.084,5.729 38.013,2.48 55.662,-3.259 17.275,-5.617 34.724,-13.65 46.859,-27.595 11.489,-13.203 18.259,-30.285 18.625,-47.801 0.425,-20.333 -7.877,-39.932 -22.211,-54.266 -1.134,-1.117 -2.286,-2.217 -3.473,-3.264 -2.6,-2.287 -5.375,-4.433 -8.325,-6.37 -4.869,-3.194 -10.157,-5.76 -15.76,-7.4 -26.371,-7.749 -40.421,-20.333 -47.838,-30.596 -1.275,-1.762 -2.165,-3.682 -2.653,-5.689 -13.387,-23.16 7.173,-98.766 118.017,-112.066 4.257,-0.518 10.408,-0.842 17.241,-1.033 26.374,-0.739 51.472,-11.816 69.42,-31.155 11.201,-12.07 26.352,-24.056 44.851,-28.595 45.06,-11.06 75.994,0.272 93.21,10.723 6.362,3.863 4.455,13.602 -2.895,14.768 -75.915,12.048 -80.703,72.799 -80.703,72.799 0,0 46.948,-67.089 109.989,-57.42 40.164,6.169 57.769,25.983 65.259,39.558 3.94,7.141 4.085,15.761 0.416,23.045 l -22.671,45.012"
         style="fill:#8e1b80;fill-opacity:1;fill-rule:nonzero;stroke:none;stroke-width:0.1"
         id="path26" /></g></g></svg>